<svg width="98" height="98" viewBox="0 0 98 98" fill="none" xmlns="http://www.w3.org/2000/svg">
<rect width="98" height="98" rx="10" fill="#615FFF"/>
<path d="M57.9565 18.387C68.5562 18.387 77.1489 26.9585 77.1489 37.532C77.1489 48.1056 68.5562 56.6771 57.9565 56.6771H28.5281C24.2882 56.6771 20.8511 53.2485 20.8511 49.0191C20.8511 44.7897 24.2882 41.361 28.5281 41.361H59.6625C61.7824 41.361 63.501 39.6467 63.501 37.532C63.501 35.4173 61.7824 33.703 59.6625 33.703H28.5281C24.2882 33.703 20.8511 30.2744 20.8511 26.045C20.8511 21.8156 24.2882 18.387 28.5281 18.387H57.9565Z" fill="white"/>
<circle cx="28.5281" cy="71.9363" r="7.67698" fill="white"/>
</svg>
